<?xml version="1.0" encoding="utf-8"?>
<!-- Generator: Adobe Illustrator 23.0.5, SVG Export Plug-In . SVG Version: 6.00 Build 0)  -->
<svg version="1.1" id="Capa_1" xmlns="http://www.w3.org/2000/svg" xmlns:xlink="http://www.w3.org/1999/xlink" x="0px" y="0px"
	 viewBox="0 0 310.9 120.5" style="enable-background:new 0 0 310.9 120.5;" xml:space="preserve">
<style type="text/css">
	.st0{fill:#FFFFFF;}
	.st1{fill:url(#SVGID_1_);}
	.st2{fill:url(#SVGID_2_);}
	.st3{fill:url(#SVGID_3_);}
	.st4{fill:url(#SVGID_4_);}
	.st5{fill:url(#SVGID_5_);}
	.st6{fill:url(#SVGID_6_);}
	.st7{fill:url(#SVGID_7_);}
	.st8{opacity:0.5;fill:url(#SVGID_8_);}
	.st9{opacity:0.5;fill:url(#SVGID_9_);}
	.st10{opacity:0.5;fill:url(#SVGID_10_);}
	.st11{opacity:0.5;fill:url(#SVGID_11_);}
	.st12{opacity:0.5;fill:url(#SVGID_12_);}
	.st13{opacity:0.7;fill:url(#SVGID_13_);}
	.st14{opacity:0.7;fill:url(#SVGID_14_);}
	.st15{opacity:0.7;fill:url(#SVGID_15_);}
	.st16{opacity:0.7;fill:url(#SVGID_16_);}
	.st17{opacity:0.7;fill:url(#SVGID_17_);}
	.st18{opacity:0.7;fill:url(#SVGID_18_);}
	.st19{opacity:0.7;fill:url(#SVGID_19_);}
	.st20{opacity:0.7;fill:url(#SVGID_20_);}
</style>
<g>
	<path class="st0" d="M311.2-1c0,66.6-69.6,120.5-155.4,120.5S0.3,65.5,0.3-1"/>
	<g>
		<g>
			<g>
				<linearGradient id="SVGID_1_" gradientUnits="userSpaceOnUse" x1="87.8251" y1="78.4298" x2="87.8251" y2="56.2697">
					<stop  offset="0" style="stop-color:#E5E3E2"/>
					<stop  offset="0.2477" style="stop-color:#DCD7D7"/>
					<stop  offset="0.6491" style="stop-color:#D2C9CA"/>
					<stop  offset="1" style="stop-color:#CFC5C5"/>
				</linearGradient>
				<path class="st1" d="M94.8,66.9c2.6,0.9,3.8,2.7,3.8,5.4c0,1.3-0.3,2.5-1,3.5c-0.7,1-1.6,1.7-2.7,2.1c-1.2,0.4-2.8,0.6-4.9,0.6
					H77v-0.5c0.4-0.1,0.7-0.3,0.8-0.4c0.1-0.2,0.2-0.5,0.2-1V58.2c0-0.5-0.1-0.8-0.2-1c-0.1-0.2-0.4-0.3-0.8-0.4v-0.5h13.2
					c1.3,0,2.4,0.1,3.2,0.3c0.8,0.2,1.6,0.5,2.2,1c1.5,1.1,2.2,2.6,2.2,4.6C97.9,64.3,96.8,65.9,94.8,66.9z M80.6,65.8h8.5
					c1.2,0,2.1,0,2.7-0.1c0.6-0.1,1.2-0.2,1.7-0.4c0.6-0.3,1.1-0.7,1.5-1.2c0.3-0.5,0.5-1.2,0.5-1.9c0-1-0.3-1.8-0.9-2.4
					c-0.5-0.5-1.1-0.9-1.9-1.1c-0.8-0.2-2-0.3-3.6-0.3h-8.3V65.8z M80.6,76.3h8.9c1.3,0,2.2,0,2.8-0.1c0.6-0.1,1.2-0.2,1.7-0.5
					c0.6-0.3,1.2-0.8,1.5-1.4c0.4-0.6,0.5-1.3,0.5-2.1c0-1.1-0.3-2-1-2.7c-0.5-0.6-1.2-1-2-1.3c-0.8-0.2-2.1-0.3-3.8-0.3h-8.7V76.3z
					"/>
				<linearGradient id="SVGID_2_" gradientUnits="userSpaceOnUse" x1="115.4026" y1="79.4689" x2="115.4026" y2="60.247">
					<stop  offset="0" style="stop-color:#E5E3E2"/>
					<stop  offset="0.2477" style="stop-color:#DCD7D7"/>
					<stop  offset="0.6491" style="stop-color:#D2C9CA"/>
					<stop  offset="1" style="stop-color:#CFC5C5"/>
				</linearGradient>
				<path class="st2" d="M110.6,76.7h11c0.5,0,0.8-0.1,1-0.2c0.2-0.1,0.3-0.4,0.4-0.8h0.4v3.8h-0.4c-0.1-0.4-0.3-0.7-0.4-0.8
					c-0.2-0.1-0.5-0.2-1-0.2h-14.4V78c0.4-0.1,0.7-0.3,0.8-0.4c0.1-0.2,0.2-0.5,0.2-0.9V62.1c0-0.5-0.1-0.8-0.2-1
					c-0.1-0.2-0.4-0.3-0.8-0.4v-0.4h4.4v0.4c-0.4,0.1-0.7,0.3-0.8,0.4c-0.1,0.2-0.2,0.5-0.2,1V76.7z"/>
				<linearGradient id="SVGID_3_" gradientUnits="userSpaceOnUse" x1="139.6744" y1="78.8197" x2="139.6744" y2="60.247">
					<stop  offset="0" style="stop-color:#E5E3E2"/>
					<stop  offset="0.2477" style="stop-color:#DCD7D7"/>
					<stop  offset="0.6491" style="stop-color:#D2C9CA"/>
					<stop  offset="1" style="stop-color:#CFC5C5"/>
				</linearGradient>
				<path class="st3" d="M133.8,62.1v9.3c0,1.4,0.1,2.4,0.2,3c0.1,0.5,0.4,1,0.9,1.4c1,0.8,2.6,1.2,5,1.2c2.6,0,4.4-0.5,5.3-1.4
					c0.3-0.4,0.6-0.8,0.7-1.3c0.1-0.5,0.2-1.4,0.2-2.8v-9.3c0-0.4-0.1-0.8-0.2-0.9c-0.1-0.2-0.4-0.3-0.8-0.4v-0.4h4v0.4
					c-0.4,0.1-0.7,0.3-0.8,0.4c-0.1,0.2-0.2,0.5-0.2,1v9.8c0,1.7-0.1,2.8-0.4,3.5c-0.5,1.2-1.3,2-2.6,2.6c-1.3,0.6-3,0.8-5.2,0.8
					c-3.2,0-5.4-0.6-6.7-1.8c-0.6-0.6-1-1.2-1.2-1.9c-0.2-0.7-0.3-1.8-0.3-3.3v-9.8c0-0.5-0.1-0.8-0.2-1c-0.1-0.2-0.4-0.3-0.8-0.4
					v-0.4h4.4v0.4c-0.4,0.1-0.7,0.3-0.8,0.4C133.8,61.3,133.8,61.6,133.8,62.1z"/>
				<linearGradient id="SVGID_4_" gradientUnits="userSpaceOnUse" x1="168.2861" y1="78.4298" x2="168.2861" y2="60.247">
					<stop  offset="0" style="stop-color:#E5E3E2"/>
					<stop  offset="0.2477" style="stop-color:#DCD7D7"/>
					<stop  offset="0.6491" style="stop-color:#D2C9CA"/>
					<stop  offset="1" style="stop-color:#CFC5C5"/>
				</linearGradient>
				<path class="st4" d="M168.1,78.4l-7.7-15.3v13.5c0,0.4,0.1,0.8,0.2,0.9c0.1,0.2,0.4,0.3,0.8,0.4v0.4h-4V78
					c0.4-0.1,0.7-0.3,0.8-0.4c0.1-0.2,0.2-0.5,0.2-0.9V62.1c0-0.5-0.1-0.8-0.2-1c-0.1-0.2-0.4-0.3-0.8-0.4v-0.4h5.5v0.4
					c-0.5,0.2-0.8,0.4-0.8,0.7c0,0.1,0.1,0.5,0.4,1l5.7,11.6l5.8-11.6c0.3-0.5,0.4-0.9,0.4-1c0-0.3-0.3-0.6-0.8-0.7v-0.4h5.5v0.4
					c-0.4,0.1-0.7,0.3-0.8,0.4c-0.1,0.2-0.2,0.5-0.2,0.9v14.5c0,0.4,0.1,0.8,0.2,0.9c0.1,0.2,0.4,0.3,0.8,0.4v0.4h-4.4V78
					c0.4-0.1,0.7-0.3,0.8-0.4c0.1-0.2,0.2-0.5,0.2-0.9V63.1L168.1,78.4z"/>
				<linearGradient id="SVGID_5_" gradientUnits="userSpaceOnUse" x1="190.1739" y1="78.4298" x2="190.1739" y2="60.247">
					<stop  offset="0" style="stop-color:#E5E3E2"/>
					<stop  offset="0.2477" style="stop-color:#DCD7D7"/>
					<stop  offset="0.6491" style="stop-color:#D2C9CA"/>
					<stop  offset="1" style="stop-color:#CFC5C5"/>
				</linearGradient>
				<path class="st5" d="M189,76.6V62.1c0-0.5-0.1-0.8-0.2-1c-0.1-0.2-0.4-0.3-0.8-0.4v-0.4h4.4v0.4c-0.4,0.1-0.7,0.3-0.8,0.4
					c-0.1,0.2-0.2,0.5-0.2,1v14.5c0,0.4,0.1,0.8,0.2,0.9c0.1,0.2,0.4,0.3,0.8,0.4v0.4H188V78c0.4-0.1,0.7-0.3,0.8-0.4
					C188.9,77.4,189,77,189,76.6z"/>
				<linearGradient id="SVGID_6_" gradientUnits="userSpaceOnUse" x1="209.4108" y1="79.4689" x2="209.4108" y2="59.2079">
					<stop  offset="0" style="stop-color:#E5E3E2"/>
					<stop  offset="0.2477" style="stop-color:#DCD7D7"/>
					<stop  offset="0.6491" style="stop-color:#D2C9CA"/>
					<stop  offset="1" style="stop-color:#CFC5C5"/>
				</linearGradient>
				<path class="st6" d="M204.6,69.9v6.7h11.2c0.5,0,0.8-0.1,1-0.2c0.2-0.1,0.3-0.4,0.4-0.8h0.5v3.8h-0.5c-0.1-0.4-0.2-0.7-0.4-0.8
					c-0.2-0.1-0.5-0.2-1-0.2h-14.5V78c0.4-0.1,0.7-0.3,0.8-0.4c0.1-0.2,0.2-0.5,0.2-0.9V62.1c0-0.5-0.1-0.8-0.2-1
					c-0.1-0.2-0.4-0.3-0.8-0.4v-0.4h14.4c0.5,0,0.8-0.1,1-0.2c0.2-0.1,0.3-0.4,0.4-0.8h0.4v3.8H217c-0.1-0.4-0.3-0.7-0.4-0.8
					c-0.2-0.1-0.5-0.2-1-0.2h-11.1v6.1h7.1c0.5,0,0.8-0.1,1-0.2c0.2-0.1,0.3-0.4,0.4-0.8h0.4V71H213c-0.1-0.4-0.3-0.7-0.4-0.8
					c-0.2-0.1-0.5-0.2-0.9-0.2H204.6z"/>
				<linearGradient id="SVGID_7_" gradientUnits="userSpaceOnUse" x1="235.0804" y1="78.4298" x2="235.0804" y2="60.247">
					<stop  offset="0" style="stop-color:#E5E3E2"/>
					<stop  offset="0.2477" style="stop-color:#DCD7D7"/>
					<stop  offset="0.6491" style="stop-color:#D2C9CA"/>
					<stop  offset="1" style="stop-color:#CFC5C5"/>
				</linearGradient>
				<path class="st7" d="M229.3,70.2v6.4c0,0.4,0.1,0.8,0.2,0.9c0.1,0.2,0.4,0.3,0.8,0.4v0.4h-4.4V78c0.4-0.1,0.7-0.3,0.8-0.4
					c0.1-0.2,0.2-0.5,0.2-0.9V62.1c0-0.5-0.1-0.8-0.2-1c-0.1-0.2-0.4-0.3-0.8-0.4v-0.4h10.7c1.2,0,2.2,0.1,3,0.3
					c0.8,0.2,1.4,0.5,2,0.9c1.2,0.9,1.9,2.2,1.9,3.9c0,1.4-0.4,2.5-1.3,3.3c-0.9,0.8-2.2,1.3-3.8,1.5l4.5,7.2
					c0.2,0.2,0.3,0.4,0.5,0.5c0.2,0.1,0.4,0.2,0.8,0.2v0.4h-4.5V78c0.4-0.1,0.6-0.2,0.6-0.4c0-0.1-0.1-0.4-0.4-0.8l-4.2-6.6H229.3z
					 M229.3,68.4h6.9c1.1,0,1.9,0,2.5-0.1c0.6-0.1,1-0.2,1.4-0.4c0.9-0.5,1.3-1.3,1.3-2.5c0-1.1-0.4-2-1.2-2.6
					c-0.7-0.5-2-0.8-3.7-0.8h-7.1V68.4z"/>
			</g>
			<g>
				<g>
					<linearGradient id="SVGID_8_" gradientUnits="userSpaceOnUse" x1="161.7578" y1="37.6068" x2="148.4466" y2="14.5512">
						<stop  offset="0" style="stop-color:#E5E3E2"/>
						<stop  offset="0.144" style="stop-color:#E0DCDC"/>
						<stop  offset="0.6414" style="stop-color:#D3CBCB"/>
						<stop  offset="1" style="stop-color:#CFC5C5"/>
					</linearGradient>
					<path class="st8" d="M162.6,37.1c0,0,2.9-15.5-13.5-22.9C149.1,14.2,143.8,33.2,162.6,37.1z"/>
					<linearGradient id="SVGID_9_" gradientUnits="userSpaceOnUse" x1="167.8031" y1="34.095" x2="156.4005" y2="14.3451">
						<stop  offset="0" style="stop-color:#E5E3E2"/>
						<stop  offset="0.144" style="stop-color:#E0DCDC"/>
						<stop  offset="0.6414" style="stop-color:#D3CBCB"/>
						<stop  offset="1" style="stop-color:#CFC5C5"/>
					</linearGradient>
					<path class="st9" d="M163.6,36.5c0,0,9.9-12.3-1.7-25.4C161.9,11.2,148,25.6,163.6,36.5z"/>
					<linearGradient id="SVGID_10_" gradientUnits="userSpaceOnUse" x1="156.3469" y1="40.7206" x2="143.9103" y2="19.18">
						<stop  offset="0" style="stop-color:#E5E3E2"/>
						<stop  offset="0.144" style="stop-color:#E0DCDC"/>
						<stop  offset="0.6414" style="stop-color:#D3CBCB"/>
						<stop  offset="1" style="stop-color:#CFC5C5"/>
					</linearGradient>
					<path class="st10" d="M161.7,37.7c0,0-3.2-15.6-22.8-15.5C138.8,22.1,143.4,41.8,161.7,37.7z"/>
					<linearGradient id="SVGID_11_" gradientUnits="userSpaceOnUse" x1="152.0813" y1="43.1169" x2="141.49" y2="24.7722">
						<stop  offset="0" style="stop-color:#E5E3E2"/>
						<stop  offset="0.144" style="stop-color:#E0DCDC"/>
						<stop  offset="0.6414" style="stop-color:#D3CBCB"/>
						<stop  offset="1" style="stop-color:#CFC5C5"/>
					</linearGradient>
					<path class="st11" d="M160.4,38.3c0,0-10.8-13.1-27.2-8.8C133.2,29.6,144.6,47.4,160.4,38.3z"/>
					<linearGradient id="SVGID_12_" gradientUnits="userSpaceOnUse" x1="173.2517" y1="30.8503" x2="165.4595" y2="17.3537">
						<stop  offset="0" style="stop-color:#E5E3E2"/>
						<stop  offset="0.144" style="stop-color:#E0DCDC"/>
						<stop  offset="0.6414" style="stop-color:#D3CBCB"/>
						<stop  offset="1" style="stop-color:#CFC5C5"/>
					</linearGradient>
					<path class="st12" d="M164.3,35.9c0,0,15.1-6.8,10.1-23.6C174.4,12.4,155.2,20.1,164.3,35.9z"/>
				</g>
				<linearGradient id="SVGID_13_" gradientUnits="userSpaceOnUse" x1="190.3531" y1="56.3151" x2="200.8363" y2="52.4995">
					<stop  offset="0" style="stop-color:#E5E3E2"/>
					<stop  offset="0.1892" style="stop-color:#DEDADA"/>
					<stop  offset="0.6476" style="stop-color:#D3CACB"/>
					<stop  offset="1" style="stop-color:#CFC5C5"/>
				</linearGradient>
				<path class="st13" d="M190.4,56.3c0,0,3.2-6.2,10.2-4.6C200.6,51.8,197.2,59.8,190.4,56.3z"/>
				<linearGradient id="SVGID_14_" gradientUnits="userSpaceOnUse" x1="187.5549" y1="57.9981" x2="183.0181" y2="50.1401">
					<stop  offset="0" style="stop-color:#E5E3E2"/>
					<stop  offset="0.1892" style="stop-color:#DEDADA"/>
					<stop  offset="0.6476" style="stop-color:#D3CACB"/>
					<stop  offset="1" style="stop-color:#CFC5C5"/>
				</linearGradient>
				<path class="st14" d="M190.4,56.3c0,0-3.2-6.2-10.2-4.6C180.2,51.8,183.6,59.8,190.4,56.3z"/>
				<linearGradient id="SVGID_15_" gradientUnits="userSpaceOnUse" x1="136.4928" y1="49.3805" x2="145.0994" y2="49.3805">
					<stop  offset="0" style="stop-color:#B7ABAB"/>
					<stop  offset="5.590373e-02" style="stop-color:#BAAFAF;stop-opacity:0.9888"/>
					<stop  offset="0.3412" style="stop-color:#C6C1C1;stop-opacity:0.9318"/>
					<stop  offset="0.6457" style="stop-color:#CDCCCC;stop-opacity:0.8709"/>
					<stop  offset="1" style="stop-color:#CFCFCF;stop-opacity:0.8"/>
				</linearGradient>
				<path class="st15" d="M136.5,51c0,0-0.4-2.6,8.6-2.5C145.1,48.4,136.4,45.9,136.5,51z"/>
				<linearGradient id="SVGID_16_" gradientUnits="userSpaceOnUse" x1="135.7512" y1="47.9193" x2="141.5414" y2="47.9193">
					<stop  offset="0" style="stop-color:#B7ABAB"/>
					<stop  offset="5.590373e-02" style="stop-color:#BAAFAF;stop-opacity:0.9888"/>
					<stop  offset="0.3412" style="stop-color:#C6C1C1;stop-opacity:0.9318"/>
					<stop  offset="0.6457" style="stop-color:#CDCCCC;stop-opacity:0.8709"/>
					<stop  offset="1" style="stop-color:#CFCFCF;stop-opacity:0.8"/>
				</linearGradient>
				<path class="st16" d="M141.5,47.3c0,0-0.7-0.5-1.7-0.6c-1.3-0.1-3.4,0.8-4.1,2.5c0,0,0.3-0.6,1.3-1.1c0.6-0.3,1.5-0.8,2.8-0.9
					C141.1,47,141.5,47.3,141.5,47.3z"/>
				<g>
					<linearGradient id="SVGID_17_" gradientUnits="userSpaceOnUse" x1="174.2636" y1="44.9887" x2="174.2636" y2="33.0208">
						<stop  offset="0" style="stop-color:#E5E3E2"/>
						<stop  offset="2.949858e-02" style="stop-color:#E3E1E0"/>
						<stop  offset="0.2972" style="stop-color:#D7D1D1"/>
						<stop  offset="0.5981" style="stop-color:#D1C7C8"/>
						<stop  offset="1" style="stop-color:#CFC5C5"/>
					</linearGradient>
					<path class="st17" d="M182.3,41.3c0,0,1.2-7.3-6.4-8.2c-1.1-0.1-2.3,0.4-3.1,1.2c-0.5,0.5-1.1,1.8-3,2.2
						c-4.4,1-3.6,8.5-3.6,8.5c0.2-3.8,3.6-5.5,4.7-6C183.1,33.1,182.3,41.3,182.3,41.3z"/>
					<linearGradient id="SVGID_18_" gradientUnits="userSpaceOnUse" x1="183.8744" y1="53.7943" x2="183.8744" y2="41.6321">
						<stop  offset="0" style="stop-color:#E5E3E2"/>
						<stop  offset="2.949858e-02" style="stop-color:#E3E1E0"/>
						<stop  offset="0.2972" style="stop-color:#D7D1D1"/>
						<stop  offset="0.5981" style="stop-color:#D1C7C8"/>
						<stop  offset="1" style="stop-color:#CFC5C5"/>
					</linearGradient>
					<path class="st18" d="M189.4,53.8c0,0,0.4-3.6-7.1-12.1c0,0-1-0.2-4,0.2C178.3,41.9,183.1,41.8,189.4,53.8z"/>
					<linearGradient id="SVGID_19_" gradientUnits="userSpaceOnUse" x1="163.1225" y1="51.7446" x2="163.1225" y2="42.476">
						<stop  offset="0" style="stop-color:#E5E3E2"/>
						<stop  offset="2.949858e-02" style="stop-color:#E3E1E0"/>
						<stop  offset="0.2972" style="stop-color:#D7D1D1"/>
						<stop  offset="0.5981" style="stop-color:#D1C7C8"/>
						<stop  offset="1" style="stop-color:#CFC5C5"/>
					</linearGradient>
					<path class="st19" d="M177.9,42.5c0,0-5.8,2.8-11.9,7.7c-3.6,2.9-10.7,1.2-17.7-1c0,0,7.7,2.1,11.7,0.2c3.7-1.7,5.3-3.1,8-4.1
						C170.8,44.2,174.5,44.1,177.9,42.5z"/>
					<linearGradient id="SVGID_20_" gradientUnits="userSpaceOnUse" x1="152.0971" y1="48.1403" x2="152.0971" y2="36.5191">
						<stop  offset="0" style="stop-color:#E5E3E2"/>
						<stop  offset="2.949858e-02" style="stop-color:#E3E1E0"/>
						<stop  offset="0.2972" style="stop-color:#D7D1D1"/>
						<stop  offset="0.5981" style="stop-color:#D1C7C8"/>
						<stop  offset="1" style="stop-color:#CFC5C5"/>
					</linearGradient>
					<path class="st20" d="M135.8,47c0,0,4.4-2.3,9.1-2c7.2,0.5,11.8-2.4,16.7-5.5c2.2-1.4,3.2-2.4,6.8-3c0,0-2.4,0-3,5.8
						c0,2.2,0,2.8-2.8,4.4c-4.9,2.8-19.1,1-20.9-0.1C140.4,45.6,135.8,47,135.8,47z"/>
				</g>
			</g>
		</g>
	</g>
</g>
</svg>
